PathFileType	4	(X/Y/Z)	C:/Users/beibeiliu/ov580/test_trc/User2\sequence.27_training_dense_right.trc
DataRate	CameraRate	NumFrames	NumMarkers	Units	OrigDataRate	OrigDataStartFrame	OrigNumFrames
120	120	10	19	mm	120	140	278
Frame#	Time	ThumbCMC			ThumbMCP			ThumbIP			ThumbTip			IndexMCP			IndexPIP			IndexTip			MiddleMCP			MiddlePIP			MiddleTip			RingMCP			RingPIP			RingTip			PinkyMCP			PinkyPIP			PinkyTip			BackHand1			BackHand2			BackHand3	
		X0	Y0	Z0	X1	Y1	Z1	X2	Y2	Z2	X3	Y3	Z3	X4	Y4	Z4	X5	Y5	Z5	X6	Y6	Z6	X7	Y7	Z7	X8	Y8	Z8	X9	Y9	Z9	X10	Y10	Z10	X11	Y11	Z11	X12	Y12	Z12	X13	Y13	Z13	X14	Y14	Z14	X15	Y15	Z15	X16	Y16	Z16	X17	Y17	Z17	X18	Y18	Z18	
139	1.15833	113.516	13.7153	64.2765	92.5135	24.4664	37.1235	71.9499	30.6048	7.65438	59.6478	13.1486	-9.39109	123.058	-12.1855	-18.1545	97.6776	-15.1755	-41.5276	67.9733	-11.0125	-32.4486	119.063	-36.9676	-21.8474	87.958	-38.5701	-46.2528	53.6388	-34.1153	-38.2719	109.254	-53.9695	-11.8942	86.0225	-57.4359	-33.8874	50.5294	-43.4118	-32.241	97.6728	-71.3833	3.68164	77.6557	-66.8964	-16.5185	47.8746	-54.2562	-21.1807	131.749	-51.0969	42.6312	140.582	-50.2221	76.3359	141.818	-17.9646	55.2644	
140	1.16667	105.771	16.5995	67.386	80.4738	30.9514	45.1609	60.9284	31.1181	18.1407	52.7441	13.5468	-5.64732	119.334	1.79234	-11.635	94.14	-5.77191	-37.1275	61.9952	-3.08046	-27.0771	121.138	-22.4957	-18.1225	92.3509	-25.7892	-47.0539	55.5839	-30.4962	-41.6943	114.683	-46.7213	-15.1998	91.6074	-44.5989	-37.4665	54.4178	-41.3603	-34.3348	106.805	-61.9117	3.96178	86.4036	-59.6768	-20.02	52.7791	-49.3674	-24.387	133.48	-46.4356	45.5528	140.58	-43.2455	74.4417	138.555	-5.52386	58.1922	
141	1.175	96.0672	18.6875	76.884	71.4135	24.9451	49.1363	51.4182	29.3524	20.1274	47.0601	10.1364	-0.565437	112.635	14.0006	-10.844	91.2064	3.93246	-32.3792	59.2972	-3.77115	-20.3144	119.939	-12.761	-16.1429	93.8147	-12.9782	-44.8336	58.1927	-23.3411	-43.5375	116.731	-29.8899	-16.6563	93.7832	-36.0839	-38.4078	62.3292	-34.0018	-37.3857	113.629	-55.4934	0.476496	88.7641	-52.1128	-24.2736	60.868	-50.6834	-25.8813	136.906	-32.9724	42.8139	144.432	-39.5297	76.9721	134.968	-3.58458	61.6275	
142	1.18333	86.6838	13.5253	78.4867	59.6438	19.9471	57.7442	41.8895	20.5428	25.932	40.5976	4.71435	3.86876	104.518	20.1305	-2.74552	81.9044	14.338	-25.1453	52.786	-2.01223	-14.6164	116.056	1.30722	-14.4053	93.7797	-5.29818	-40.7481	54.4129	-20.5189	-40.3072	118.182	-20.0212	-16.8313	99.2943	-22.0624	-36.4855	60.9831	-32.0947	-36.8862	118.535	-42.9975	-2.90184	96.9661	-41.1201	-24.9915	65.4682	-47.7023	-30.3671	136.869	-26.8342	47.943	146.382	-34.1599	73.5729	129.416	5.06068	67.1542	
143	1.19167	82.5555	5.62887	81.5743	53.9595	10.4888	63.1063	34.1969	12.3637	29.8572	38.1642	-0.572197	2.59406	96.3642	24.563	5.22536	71.8693	15.1451	-20.3619	49.9958	-8.56284	-9.12316	112.784	8.03246	-8.04449	91.0086	1.36972	-38.2095	54.65	-17.4553	-40.3615	118.702	-13.0045	-9.15608	96.0118	-20.2972	-38.0266	65.4033	-29.0389	-39.1575	122.24	-37.0833	-0.282707	101.17	-37.5411	-25.4994	69.3855	-39.4905	-30.3818	137.548	-18.8974	45.3776	143.294	-30.3995	81.1331	122.408	3.40775	70.602	
144	1.2	77.5067	-3.75807	89.6159	47.5677	0.725038	65.0305	31.6577	1.51323	33.8973	31.5865	-6.46968	6.08791	88.6252	27.0284	7.3759	68.8726	14.1476	-17.3474	45.5843	-7.32129	-8.52822	106.374	14.9428	-1.38688	86.0281	7.56948	-34.8193	57.0432	-13.5365	-41.4753	116.54	-6.07144	-9.61406	100.952	-11.5711	-33.7012	67.4902	-27.0739	-42.8968	124.686	-30.8011	-1.80462	100.963	-29.1933	-28.0373	77.3731	-35.531	-33.5013	134.184	-18.0677	46.8802	142.893	-28.5337	83.1018	119.592	4.4359	74.0832	
145	1.20833	73.8818	-10.4651	89.5158	46.8478	-7.66226	63.4308	27.3483	-6.47001	34.8557	31.162	-11.3605	5.96377	84.7755	26.531	11.8854	66.4021	19.9383	-12.8109	44.8306	-9.11181	-9.19625	105.547	19.2715	2.86859	86.6953	16.033	-31.1389	60.7293	-9.73456	-43.0742	116.337	1.40791	-4.7258	99.9978	-1.98619	-33.4338	73.2513	-19.8753	-45.3643	125.163	-22.765	1.89997	108.068	-21.1029	-25.2585	84.5866	-31.7493	-40.7933	136.561	-18.3155	51.5357	142.362	-27.5002	82.5207	117.062	0.921846	78.1305	
146	1.21667	70.4235	-16.6904	86.9218	46.0821	-19.4051	65.2862	27.3642	-15.8233	32.5415	30.6818	-20.1278	7.06428	77.022	32.2036	18.3496	62.5755	27.1902	-6.93728	48.2461	-8.55904	-14.0581	100.846	25.7033	8.4743	85.2266	25.292	-27.2523	61.5041	-2.179	-44.9817	116.515	8.4571	1.11212	102.383	9.74736	-29.7917	79.9673	-4.50325	-47.7172	127.614	-11.9034	0.32664	110.94	-9.2786	-26.0368	87.9864	-16.7976	-41.922	132.68	-7.99357	53.6717	141.313	-25.289	81.6114	110.664	-1.76913	83.1046	
147	1.225	67.4338	-22.1936	87.787	44.2166	-26.4343	63.8712	27.7166	-24.0219	32.6545	32.5339	-24.4691	5.58324	76.5779	30.0252	23.525	62.221	29.5954	-6.58429	47.5515	-1.50148	-19.4998	99.7952	31.1902	10.1376	81.7536	34.5667	-24.5074	60.5721	11.6877	-45.4647	114.265	16.3005	5.24712	105.523	21.0691	-24.3652	84.4136	10.0591	-48.5698	127.22	-6.85158	7.16549	118.067	-1.65261	-22.7077	101.677	-4.07314	-45.3972	131.417	-7.31885	57.2847	138.53	-21.1815	82.3857	108.732	-3.30889	84.4083	
148	1.23333	68.4175	-26.6973	86.8897	42.0655	-30.0321	60.3491	26.2521	-26.8694	27.6742	30.7724	-27.4286	1.62926	70.3627	32.7041	25.4755	58.1994	31.0898	-6.35214	43.3554	6.02593	-23.9798	93.9265	34.5823	14.8525	83.4066	41.3944	-17.4764	64.2572	21.6705	-47.4169	111.925	22.7192	8.06868	106.784	29.6355	-20.1461	85.7511	22.9012	-45.7375	129.082	0.317681	5.9205	121.953	6.21619	-23.667	104.507	6.25222	-46.4367	129.841	-5.61305	55.5479	138.34	-20.109	85.2783	107.297	-2.1522	85.7805	
